<?xml version="1.0" encoding="utf-8"?><svg xmlns="http://www.w3.org/2000/svg" xmlns:xlink="http://www.w3.org/1999/xlink"><symbol fill="none" viewBox="0 0 101 84" id="cornices" xmlns="http://www.w3.org/2000/svg"><rect x="22.93" y="37.242" width="62.836" height="2.625" rx="1.313" fill="#06D0A8"/><rect x="12.922" y="37.242" width="7.219" height="2.625" rx="1.313" fill="#06D0A8"/><path d="M14.122 16.406c0-.062.05-.112.112-.112h71.532c.062 0 .112.05.112.112v66.281c0 .063-.05.113-.112.113H14.234a.112.112 0 01-.112-.112V16.406z" stroke="#252526" stroke-width="2.4"/><mask id="aa" fill="#fff"><rect x="17.844" y="52.172" width="28.383" height="26.742" rx="1.313"/></mask><rect x="17.544" y="54.172" width="28.383" height="25.742" rx="1.313" stroke="#252526" stroke-width="1.922" mask="url(#aa)"/><mask id="ab" fill="#fff"><rect x="53.773" y="52.172" width="28.383" height="26.742" rx="1.313"/></mask><rect x="53.773" y="54.172" width="28.383" height="25.742" rx="1.313" stroke="#252526" stroke-width="1.922" mask="url(#ab)"/><path fill="#252526" d="M14.234 22.313h71.531v2.625H14.234zM14.234 29.695h71.531v2.625H14.234zM14.234 44.625h71.531v2.625H14.234zM48.687 81.703V52.828h2.625v28.875z"/><path fill="#252526" d="M14.234 52.008h71.531v2.625H14.234z"/><circle cx="8.205" cy="16.205" r="4.005" stroke="#06D0A8" stroke-width="2.4"/><path stroke="#06D0A8" stroke-width="3.1" d="M12.868 16.658l74.495 1.862"/><circle cx="92.205" cy="16.205" r="4.005" stroke="#06D0A8" stroke-width="2.4"/></symbol><symbol fill="none" viewBox="0 0 90 90" id="like" xmlns="http://www.w3.org/2000/svg"><g clip-path="url(#bclip0)"><path d="M88.474 20.987a5.011 5.011 0 001.275-5.168 5.01 5.01 0 00-4.07-3.432l-7.715-1.12a2.403 2.403 0 01-1.81-1.315l-3.45-6.992A5.01 5.01 0 0068.183.15a5.01 5.01 0 00-4.521 2.81l-3.45 6.992c-.35.709-1.027 1.2-1.81 1.314l-7.716 1.121a5.01 5.01 0 00-4.07 3.432 5.01 5.01 0 001.276 5.168l5.583 5.442c.567.552.825 1.348.691 2.127l-1.318 7.685a5.01 5.01 0 002.006 4.931 5.024 5.024 0 002.959.968c.8 0 1.606-.193 2.35-.584l6.902-3.628a2.402 2.402 0 012.236 0l6.901 3.628c1.712.9 3.746.752 5.31-.384a5.01 5.01 0 002.006-4.93l-.252-1.472a1.32 1.32 0 10-2.601.446l.252 1.471c.158.922-.2 1.8-.956 2.35a2.357 2.357 0 01-2.53.183l-6.902-3.628a5.04 5.04 0 00-4.692 0l-6.902 3.628a2.357 2.357 0 01-2.53-.183 2.358 2.358 0 01-.956-2.35l1.318-7.684a5.04 5.04 0 00-1.45-4.463l-5.583-5.442a2.358 2.358 0 01-.608-2.463c.289-.89 1.014-1.501 1.94-1.636l7.715-1.12a5.041 5.041 0 003.796-2.759l3.451-6.992a2.358 2.358 0 012.155-1.34c.935.001 1.74.502 2.154 1.34l3.45 6.992a5.041 5.041 0 003.797 2.758L85.3 15c.925.135 1.65.746 1.94 1.635.288.89.061 1.81-.609 2.463l-5.583 5.443a5.04 5.04 0 00-1.45 4.462l.044.256a1.32 1.32 0 102.601-.446l-.044-.256a2.402 2.402 0 01.691-2.126l5.584-5.443z" fill="#06D0A8"/><path d="M72.522 57.119a6.162 6.162 0 001.502-4.036 6.197 6.197 0 00-6.19-6.19l-20.083-.025c-.003-.008-.225-.653-.366-.954l-.002-.005a3.713 3.713 0 01-.328-2.058c.294-2.253.367-4.592.425-6.472.151-4.82-.81-8.342-2.941-10.765a11.253 11.253 0 00-8.455-3.826h-.073c-1.818.012-3.297 1.516-3.297 3.354v5.86c0 3.73-.604 8.919-3.48 12.462-3.052 3.758-5.687 3.726-10.05 3.672l-.453-.005v-1.584a4.768 4.768 0 00-4.763-4.762H4.763A4.768 4.768 0 000 46.547v13.25a1.32 1.32 0 102.639 0v-13.25c0-1.17.953-2.124 2.124-2.124h9.205c1.17 0 2.123.953 2.123 2.124v38.54a2.126 2.126 0 01-2.123 2.124H4.763a2.126 2.126 0 01-2.124-2.123v-19.27a1.32 1.32 0 10-2.639 0v19.27a4.768 4.768 0 004.763 4.763h9.205a4.768 4.768 0 004.762-4.763v-1.993h1.784c.863 0 1.718.302 2.406.85.178.14.385.318.625.523 1.65 1.408 4.721 4.03 9.117 4.03l32.39.001a6.197 6.197 0 006.19-6.19 6.16 6.16 0 00-1.382-3.894 6.2 6.2 0 004.165-5.848 6.162 6.162 0 00-1.503-4.036 6.2 6.2 0 003.79-5.706 6.2 6.2 0 00-3.79-5.706zm-15.95-7.588h11.262a3.556 3.556 0 013.551 3.552 3.556 3.556 0 01-3.551 3.551H56.57a3.556 3.556 0 01-3.551-3.551 3.555 3.555 0 013.551-3.552zM48.722 85.86h-16.06c-3.423 0-5.819-2.046-7.404-3.399a26.8 26.8 0 00-.695-.581 6.531 6.531 0 00-4.05-1.424h-1.783V50.77l.42.005c4.623.056 8.276.102 12.132-4.648 1.857-2.287 4.07-6.594 4.07-14.125v-5.86c0-.392.303-.712.675-.715h.053a8.736 8.736 0 016.476 2.93c1.667 1.896 2.415 4.82 2.286 8.94-.057 1.822-.128 4.089-.405 6.213a6.346 6.346 0 00.555 3.518l.008.02.014.03.003.007c.422.99.743 2.068.793 3.152.062 1.35-.21 2.71-.812 4.049-.012.027-1.26 2.779-4.7 4.305a1.32 1.32 0 00-.67 1.741c1.021 2.304 4.815-1.16 5.752-2.13.794-.823 1.561-1.786 2.028-2.841.77-1.712 1.12-3.477 1.038-5.245a8.8 8.8 0 00-.051-.609h3.127a6.154 6.154 0 00-1.142 3.576 6.2 6.2 0 003.79 5.706 6.161 6.161 0 00-1.502 4.036c0 1.541.567 2.951 1.502 4.036a6.2 6.2 0 00-3.79 5.706 6.16 6.16 0 001.383 3.894 6.2 6.2 0 00-4.165 5.848c0 1.32.417 2.545 1.125 3.55zm16.329 0h-11.27a3.555 3.555 0 01-3.544-3.551 3.555 3.555 0 013.552-3.552h11.262a3.555 3.555 0 013.552 3.552 3.556 3.556 0 01-3.552 3.551zm2.782-9.742H56.57a3.556 3.556 0 01-3.551-3.551 3.556 3.556 0 013.551-3.552h11.263a3.556 3.556 0 013.551 3.552 3.556 3.556 0 01-3.551 3.551zm2.288-9.742H58.859a3.556 3.556 0 01-3.551-3.551 3.556 3.556 0 013.551-3.552h11.263a3.556 3.556 0 013.551 3.552 3.556 3.556 0 01-3.551 3.551z" fill="#252526"/></g><defs><clipPath id="bclip0"><path fill="#fff" d="M0 0h90v90H0z"/></clipPath></defs></symbol><symbol fill="none" viewBox="0 0 37 53" id="logo" xmlns="http://www.w3.org/2000/svg"><path d="M0 0h36.876v52.403H0V0z" fill="#06D0A8"/><path fill-rule="evenodd" clip-rule="evenodd" d="M32.994 4.125H3.807v44.714h29.187V4.125zM1.904 2.22v48.521h32.994V2.222H1.903z" fill="#fff"/><path d="M19.507 13.984c1.424 0 2.589.216 3.495.647.928.41 1.747.896 2.46 1.456.43.324.754.367.97.13.237-.26.399-.852.485-1.78h.744a94.307 94.307 0 00-.097 3.074 274.545 274.545 0 00-.032 4.756h-.744c-.108-.992-.248-1.833-.42-2.523a7.39 7.39 0 00-.713-1.877c-.302-.54-.733-1.025-1.294-1.456a5.078 5.078 0 00-1.877-1.197 6.482 6.482 0 00-2.232-.389c-1.165 0-2.157.313-2.977.939-.82.604-1.489 1.434-2.006 2.491-.496 1.057-.863 2.254-1.1 3.592a23.119 23.119 0 00-.356 4.11c0 1.444.118 2.836.356 4.173.258 1.316.647 2.492 1.164 3.527.54 1.036 1.23 1.855 2.071 2.46.841.603 1.834.905 2.977.905.712 0 1.424-.13 2.136-.388a5.282 5.282 0 001.876-1.197c.842-.647 1.413-1.445 1.715-2.395.302-.97.529-2.254.68-3.85h.744c0 2.05.01 3.71.032 4.983.022 1.251.054 2.308.097 3.17h-.744c-.086-.927-.237-1.51-.453-1.746-.194-.238-.528-.205-1.003.097-.798.56-1.65 1.057-2.556 1.488-.885.41-2.028.615-3.43.615-2.287 0-4.293-.464-6.018-1.392-1.704-.927-3.031-2.264-3.98-4.012-.95-1.747-1.424-3.85-1.424-6.31 0-2.415.485-4.53 1.456-6.341.992-1.812 2.34-3.225 4.045-4.24 1.726-1.013 3.71-1.52 5.953-1.52z" fill="#fff"/></symbol><symbol fill="none" viewBox="0 0 90 90" id="medal" xmlns="http://www.w3.org/2000/svg"><g clip-path="url(#dclip0)"><path d="M45 8.313c-7.376 0-14.286 2.898-19.46 8.162l-.077.08a1.316 1.316 0 001.881 1.839l.075-.077c4.673-4.755 10.916-7.373 17.58-7.373 13.591 0 24.648 11.057 24.648 24.647 0 13.59-11.057 24.647-24.647 24.647-13.59 0-24.647-11.056-24.647-24.647 0-4.44 1.193-8.792 3.45-12.585a1.315 1.315 0 00-2.26-1.345c-2.5 4.2-3.82 9.017-3.82 13.93C17.722 50.632 29.958 62.87 45 62.87c15.04 0 27.277-12.237 27.277-27.278 0-15.04-12.236-27.278-27.277-27.278z" fill="#252526"/><path d="M78.317 30.117c-.714-1.063-1.388-2.066-1.641-3.014-.27-1.01-.19-2.256-.104-3.575.127-1.966.26-4-.745-5.737-1.02-1.763-2.864-2.668-4.646-3.544-1.172-.575-2.28-1.119-2.999-1.838-.72-.72-1.263-1.827-1.838-2.999-.876-1.782-1.78-3.625-3.544-4.645-1.737-1.005-3.77-.873-5.737-.746-1.32.086-2.564.167-3.576-.103-.947-.254-1.95-.928-3.013-1.641C48.887 1.208 47.087 0 45 0s-3.887 1.208-5.474 2.275c-1.063.713-2.067 1.387-3.014 1.64-1.01.27-2.256.19-3.575.104-1.967-.127-4-.259-5.737.746-1.763 1.02-2.668 2.863-3.544 4.645-.575 1.172-1.119 2.28-1.839 2.999-.719.72-1.826 1.263-2.998 1.838-1.782.876-3.625 1.78-4.646 3.544-1.005 1.737-.873 3.77-.745 5.738.086 1.318.166 2.563-.104 3.574-.253.948-.927 1.951-1.64 3.014-1.067 1.588-2.275 3.387-2.275 5.474s1.208 3.887 2.274 5.474c.714 1.063 1.388 2.067 1.641 3.014.27 1.011.19 2.256.104 3.575-.128 1.967-.26 4 .745 5.737 1.02 1.764 2.863 2.669 4.646 3.544 1.172.575 2.279 1.12 2.998 1.839.667.667 1.183 1.668 1.714 2.744l-9.554 17.576a2.427 2.427 0 00.031 2.391 2.427 2.427 0 002.057 1.22l7.327.177 4.133 6.052a2.426 2.426 0 002.142 1.063 2.427 2.427 0 002.023-1.274l10.032-18.455c1.01.528 2.098.914 3.278.914 1.18 0 2.268-.386 3.277-.914L58.31 88.723A2.427 2.427 0 0060.46 90c.81 0 1.555-.392 2.015-1.066l4.134-6.052 7.326-.177a2.427 2.427 0 002.057-1.22c.43-.742.442-1.636.032-2.39l-3.494-6.428a1.315 1.315 0 10-2.311 1.257l3.347 6.158-7.117.173a2.45 2.45 0 00-1.959 1.065l-4.015 5.878-9.957-18.319c1.046-.703 2.036-1.363 2.97-1.612 1.011-.27 2.257-.19 3.575-.104 1.968.127 4.001.26 5.737-.745.92-.532 1.604-1.288 2.175-2.142l2.35 4.324a1.315 1.315 0 102.31-1.257l-3.165-5.825c.53-1.076 1.046-2.077 1.713-2.744.72-.72 1.826-1.264 2.998-1.839 1.783-.875 3.626-1.78 4.646-3.544 1.005-1.736.873-3.77.745-5.737-.085-1.319-.166-2.564.104-3.575.254-.947.928-1.95 1.641-3.014 1.066-1.587 2.275-3.387 2.275-5.474s-1.208-3.887-2.274-5.474zM29.525 87.198L25.51 81.32a2.45 2.45 0 00-1.959-1.065l-7.116-.172 8.591-15.807c.57.854 1.255 1.61 2.174 2.142 1.737 1.004 3.77.873 5.737.745 1.319-.086 2.564-.166 3.575.104.935.25 1.925.91 2.971 1.612L29.525 87.2zm46.607-47.6c-.802 1.196-1.632 2.43-1.998 3.802-.382 1.428-.283 2.951-.187 4.424.106 1.648.207 3.204-.398 4.25-.62 1.071-2.032 1.765-3.528 2.5-1.313.645-2.67 1.311-3.699 2.34-1.028 1.028-1.695 2.386-2.34 3.699-.734 1.495-1.428 2.908-2.5 3.528-1.045.605-2.601.504-4.249.397-1.473-.096-2.996-.194-4.424.188-1.371.366-2.606 1.195-3.801 1.998-1.4.94-2.722 1.828-4.008 1.828s-2.608-.888-4.008-1.828c-1.194-.802-2.43-1.632-3.8-1.999-.785-.21-1.597-.274-2.415-.274-.671 0-1.346.044-2.01.087-1.648.107-3.204.208-4.25-.397-1.071-.62-1.765-2.033-2.5-3.528-.644-1.313-1.311-2.671-2.34-3.7-1.028-1.028-2.385-1.694-3.698-2.34-1.496-.734-2.909-1.428-3.529-2.5-.605-1.045-.504-2.601-.397-4.249.096-1.472.195-2.995-.187-4.424-.367-1.37-1.196-2.606-1.999-3.801-.94-1.4-1.828-2.722-1.828-4.008 0-1.285.888-2.608 1.828-4.007.803-1.195 1.632-2.43 1.999-3.801.382-1.429.283-2.952.187-4.425-.107-1.647-.208-3.204.397-4.25.62-1.07 2.033-1.765 3.529-2.5 1.313-.644 2.67-1.311 3.699-2.34 1.028-1.027 1.695-2.385 2.34-3.698.734-1.496 1.428-2.908 2.5-3.528 1.045-.605 2.601-.504 4.249-.397 1.473.095 2.995.194 4.424-.188 1.371-.367 2.606-1.196 3.801-1.998 1.4-.94 2.722-1.828 4.008-1.828s2.608.887 4.008 1.827c1.194.803 2.43 1.632 3.8 1.999 1.43.382 2.952.283 4.425.187 1.648-.106 3.204-.207 4.25.397 1.071.62 1.765 2.033 2.5 3.529.644 1.313 1.311 2.67 2.34 3.699 1.028 1.028 2.386 1.695 3.698 2.34 1.496.734 2.908 1.428 3.528 2.5.605 1.045.504 2.601.398 4.249-.096 1.473-.195 2.995.187 4.424.367 1.371 1.196 2.607 1.999 3.801.94 1.4 1.827 2.722 1.827 4.008s-.887 2.608-1.828 4.008z" fill="#252526"/><path d="M63.063 34.359a3.217 3.217 0 00.819-3.319 3.217 3.217 0 00-2.613-2.203l-8.92-1.296a.606.606 0 01-.457-.332l-3.99-8.083A3.217 3.217 0 0045 17.322a3.217 3.217 0 00-2.903 1.804l-3.99 8.083a.606.606 0 01-.456.332l-8.92 1.296a3.217 3.217 0 00-2.613 2.203 3.217 3.217 0 00.819 3.319l6.455 6.292c.143.139.208.34.174.536l-1.524 8.885a3.217 3.217 0 001.288 3.166 3.226 3.226 0 003.41.246l7.978-4.195a.606.606 0 01.564 0l7.979 4.195a3.218 3.218 0 003.408-.246 3.217 3.217 0 001.288-3.166l-1.523-8.885a.606.606 0 01.174-.536l6.455-6.292zm-9.222 7.273l1.524 8.885a.591.591 0 01-.241.592.591.591 0 01-.639.047l-7.979-4.195a3.237 3.237 0 00-3.012 0l-7.979 4.195a.591.591 0 01-.639-.047.591.591 0 01-.24-.593l1.523-8.884a3.236 3.236 0 00-.93-2.865l-6.456-6.292a.59.59 0 01-.153-.621.59.59 0 01.49-.413l8.92-1.296a3.236 3.236 0 002.437-1.77l3.99-8.084a.59.59 0 01.543-.338.59.59 0 01.544.338l3.99 8.083a3.236 3.236 0 002.436 1.77l8.92 1.297a.59.59 0 01.49.413.59.59 0 01-.153.621l-6.455 6.292a3.236 3.236 0 00-.931 2.865z" fill="#06D0A8"/></g><defs><clipPath id="dclip0"><path fill="#fff" d="M0 0h90v90H0z"/></clipPath></defs></symbol><symbol fill="none" viewBox="0 0 90 90" id="money-hands" xmlns="http://www.w3.org/2000/svg"><g clip-path="url(#eclip0)"><path d="M14.308 80.873c-.728 0-1.318.59-1.318 1.318v.088a1.318 1.318 0 002.636 0v-.088c0-.728-.59-1.318-1.318-1.318zM52.162 36.087a1.318 1.318 0 10-2.636 0v1.042a9.65 9.65 0 00-.64.135c-2.088.518-3.647 2.113-3.973 4.064-.275 1.653.4 3.226 1.762 4.105 1.23.795 2.963 1.478 5.984 2.357 1.672.487 2.53 1.488 2.354 2.747-.2 1.431-1.7 2.887-4.177 2.9-2.06.013-2.873-.064-4.624-1.007a1.318 1.318 0 00-1.251 2.321c1.795.968 2.968 1.24 4.564 1.306v1.094a1.318 1.318 0 102.637 0v-1.184c3.197-.514 5.146-2.805 5.462-5.065.36-2.576-1.3-4.79-4.228-5.643-1.92-.56-4.05-1.239-5.291-2.04-.68-.44-.64-1.165-.591-1.457.121-.727.712-1.618 2.006-1.939 2.753-.683 4.525.56 4.619.627a1.318 1.318 0 001.585-2.106c-.078-.06-1.404-1.043-3.562-1.299v-.958z" fill="#06D0A8"/><path d="M89.766 19.966L78.66.661a1.318 1.318 0 00-1.852-.453l-8.215 5.25-25.912 3.3a7.342 7.342 0 00-4.524 2.364l-8.632 9.56a5.45 5.45 0 00-1.409 3.66 5.463 5.463 0 006.093 5.423 5.464 5.464 0 006.732.867l.09-.053a5.468 5.468 0 002.47 1.12c-5.462 2.746-9.22 8.402-9.22 14.92 0 5.466 2.642 10.327 6.717 13.372l-8.592 4.984-2.323-.29 4.063-2.91a5.47 5.47 0 002.28-4.437c0-.362-.038-.73-.112-1.091a5.429 5.429 0 00-6.282-4.286l-1.068.185a31.553 31.553 0 00-13.762 6.042L9.094 62.88.667 68.266a1.318 1.318 0 00-.433 1.768L11.34 89.339a1.318 1.318 0 001.853.453l8.215-5.25 5.744-.733a1.318 1.318 0 10-.334-2.615l-5.166.659-3.82-6.641L11.56 64.31l5.248-4.031a28.906 28.906 0 0112.607-5.535l1.069-.185a2.807 2.807 0 013.247 2.215 2.828 2.828 0 01-1.121 2.858l-6.802 4.872a1.318 1.318 0 00.605 2.38l18.234 2.278c.294.036.593-.027.846-.181l9.465-5.738a2.827 2.827 0 014.289 2.415c0 .7-.259 1.372-.729 1.892l-8.633 9.56a4.703 4.703 0 01-2.898 1.515l-14.95 1.904a1.318 1.318 0 10.332 2.616l14.95-1.904a7.341 7.341 0 004.523-2.363l8.633-9.56a5.45 5.45 0 001.409-3.66c0-1.22-.416-2.418-1.168-3.374a5.435 5.435 0 00-1.37-1.237c4.966-2.894 8.31-8.278 8.31-14.428 0-3.467-1.07-6.807-3.045-9.604a31.241 31.241 0 007.932-3.623 1.318 1.318 0 10-1.417-2.223 28.632 28.632 0 01-10.541 4.087l-1.07.185a2.807 2.807 0 01-3.246-2.215 2.828 2.828 0 011.121-2.857l6.801-4.873a1.318 1.318 0 00-.604-2.38l-18.234-2.278a1.32 1.32 0 00-.847.181l-9.464 5.738a2.826 2.826 0 01-4.29-2.415c0-.7.26-1.372.73-1.892l8.632-9.56a4.704 4.704 0 012.899-1.516l25.336-3.226 3.253 5.655L78.44 25.69l-3.156 2.425a1.318 1.318 0 101.606 2.09l4.016-3.084 8.427-5.386c.593-.38.784-1.158.433-1.769zm-76.83 66.86L3.147 69.81l6.24-3.989 5.458 9.488 4.33 7.53-6.239 3.988zm30.746-57.784l8.164-4.735 1.425.178-7.326 4.248a2.825 2.825 0 01-2.263.308zm-.135 32.52c.316.157.637.306.964.443l-6.356 3.688-1.425-.178 6.817-3.954zm.972 4.926l-2.04-.254 5.506-3.196c.605.11 1.222.186 1.848.229l-5.314 3.221zm14.49-28.365c.316 0 .636-.028.959-.084l1.068-.185c.265-.046.528-.095.791-.148a13.999 13.999 0 013.194 8.913c0 7.748-6.303 14.05-14.05 14.05-7.749 0-14.053-6.302-14.053-14.05 0-7.747 6.304-14.05 14.052-14.05.881 0 1.754.083 2.608.244.01.313.044.629.108.94a5.426 5.426 0 005.323 4.37zm-3.154-9.897a5.461 5.461 0 00-1.708 2.01 16.717 16.717 0 00-5.23-.178l8.678-5.033 2.322.29-4.062 2.91zM45.48 23.512l2.04.255-7.914 4.59a2.818 2.818 0 01-2.5.232l8.374-5.077zm35.132.667l-5.458-9.488-4.331-7.53 6.24-3.988 9.789 17.017-6.24 3.989z" fill="#252526"/><path d="M75.692 6.49c-.728 0-1.319.59-1.319 1.319v.087a1.318 1.318 0 002.637 0V7.81c0-.728-.59-1.319-1.318-1.319z" fill="#06D0A8"/></g><defs><clipPath id="eclip0"><path fill="#fff" d="M0 0h90v90H0z"/></clipPath></defs></symbol><symbol fill="none" viewBox="0 0 90 90" id="moving-truck" xmlns="http://www.w3.org/2000/svg"><g clip-path="url(#fclip0)"><path d="M87.847 58.562v-11.66a5.86 5.86 0 00-2.033-4.44l-1.424-1.23a3.24 3.24 0 01-1.064-1.847l-3.184-16.947a5.868 5.868 0 00-5.763-4.781H60.72v-1.895a3.96 3.96 0 00-3.955-3.955H17.787a1.318 1.318 0 100 2.636h38.978a1.32 1.32 0 011.319 1.319v42.363H25.805a11.585 11.585 0 00-7.992-3.193c-2.345 0-4.53.7-6.358 1.898v-3.568A3.96 3.96 0 007.5 49.307H4.79V15.762a1.32 1.32 0 011.318-1.319h6.405a1.318 1.318 0 100-2.636H6.108a3.96 3.96 0 00-3.955 3.955v42.8A3.959 3.959 0 000 62.08v2.783a3.96 3.96 0 003.955 3.956h2.448c1.054 5.337 5.768 9.374 11.41 9.374 5.641 0 10.355-4.038 11.409-9.374h14.65a1.318 1.318 0 100-2.637H29.435a11.548 11.548 0 00-1.547-5.42h34.226a11.548 11.548 0 00-1.547 5.42h-11.42a1.318 1.318 0 100 2.636h11.632c1.053 5.338 5.768 9.375 11.41 9.375 5.64 0 10.355-4.038 11.409-9.374h2.448A3.96 3.96 0 0090 64.862V62.08a3.958 3.958 0 00-2.153-3.518zm-2.636-.437h-4.03v-2.988a1.32 1.32 0 011.32-1.319h2.71v4.307zm-4.408-17.944H67.792a.791.791 0 01-.79-.79V29.002c0-.436.354-.79.79-.79h10.752s2.234 11.865 2.259 11.968zM60.72 20.294H74.38a3.23 3.23 0 013.172 2.631l.498 2.651H67.792a3.43 3.43 0 00-3.427 3.427V39.39a3.43 3.43 0 003.427 3.428h14.447c.136.143 1.852 1.64 1.852 1.64a3.225 3.225 0 011.12 2.444v4.28H82.5a3.96 3.96 0 00-3.956 3.955v1.693a11.559 11.559 0 00-6.357-1.898 11.586 11.586 0 00-7.993 3.193H60.72V20.294zM8.818 53.262v4.863H4.79v-6.181H7.5a1.32 1.32 0 011.318 1.318zM2.637 64.863V62.08a1.32 1.32 0 011.318-1.318h3.783a11.548 11.548 0 00-1.547 5.42H3.955a1.32 1.32 0 01-1.318-1.319zm15.176 10.694c-4.96 0-8.995-4.035-8.995-8.995 0-4.959 4.035-8.993 8.995-8.993 4.959 0 8.994 4.034 8.994 8.994s-4.035 8.994-8.994 8.994zm54.375 0c-4.96 0-8.995-4.035-8.995-8.995 0-4.959 4.035-8.994 8.995-8.994 4.959 0 8.994 4.035 8.994 8.995 0 4.959-4.035 8.994-8.994 8.994zm15.175-10.694a1.32 1.32 0 01-1.318 1.319h-2.236a11.548 11.548 0 00-1.547-5.42h3.783a1.32 1.32 0 011.318 1.318v2.783z" fill="#252526"/><path d="M17.813 61.12a5.45 5.45 0 00-5.444 5.442 5.45 5.45 0 005.444 5.444 5.45 5.45 0 005.443-5.444 5.45 5.45 0 00-5.443-5.443zm0 8.25a2.81 2.81 0 01-2.807-2.808 2.81 2.81 0 012.807-2.806 2.81 2.81 0 012.806 2.806 2.81 2.81 0 01-2.806 2.807zM72.188 61.12a5.45 5.45 0 00-5.444 5.442 5.45 5.45 0 005.444 5.444 5.45 5.45 0 005.443-5.444 5.45 5.45 0 00-5.443-5.443zm0 8.25a2.81 2.81 0 01-2.807-2.808 2.81 2.81 0 012.807-2.806 2.81 2.81 0 012.806 2.806 2.81 2.81 0 01-2.806 2.807z" fill="#252526"/><path d="M32.232 45.326h13.349a3.32 3.32 0 003.316-3.316v-7.918a3.791 3.791 0 00-1.477-3.015l-6.174-4.79a3.815 3.815 0 00-4.68-.001l-6.173 4.79a3.79 3.79 0 00-1.379 2.147h-8.916a1.318 1.318 0 100 2.636h8.818v2.989h-7.142a1.318 1.318 0 100 2.636h7.142v.526a3.32 3.32 0 003.316 3.316zm-.68-11.234c0-.367.167-.707.457-.932l6.174-4.79a1.178 1.178 0 011.447 0l6.174 4.79c.29.225.457.565.457.932v7.918a.68.68 0 01-.68.68h-5.356v-4.372a1.318 1.318 0 10-2.637 0v4.372h-5.356a.68.68 0 01-.68-.68v-7.918z" fill="#06D0A8"/></g><defs><clipPath id="fclip0"><path fill="#fff" d="M0 0h90v90H0z"/></clipPath></defs></symbol><symbol fill="none" viewBox="0 0 90 90" id="sewing-machine" xmlns="http://www.w3.org/2000/svg"><path d="M1.308 34.333c.722 0 1.308-.586 1.308-1.308v-5.201c0-.317.257-.574.574-.574h6.639c.534 0 1.062.137 1.529.397l4.525 2.522a5.018 5.018 0 002.806.624l37.276-2.655a10.273 10.273 0 017.808 2.756 10.27 10.27 0 013.303 7.592V63.08a1.308 1.308 0 002.616 0V47.47l4.593 3.127v5.766c0 2.189 1.78 3.97 3.97 3.97 2.19 0 3.97-1.781 3.97-3.97V34.186l2.355.425a4.342 4.342 0 003.562-.942 4.339 4.339 0 001.56-3.338 4.34 4.34 0 00-1.56-3.338 4.338 4.338 0 00-3.562-.942l-2.355.426V23.87c0-2.19-1.78-3.97-3.97-3.97a3.975 3.975 0 00-3.97 3.97v5.766l-5.613 3.821a12.998 12.998 0 00-3.117-4.478 13.04 13.04 0 00-8.386-3.473v-3.298h4.774a1.308 1.308 0 000-2.616h-.139v-8.42h.14a1.308 1.308 0 000-2.617h-4.775V5.367a1.308 1.308 0 00-2.616 0v3.188H49.78a1.308 1.308 0 100 2.616h.139v8.42h-.139a1.308 1.308 0 100 2.617h4.774v3.408l-36.05 2.567c-.47.034-.935-.07-1.347-.3l-4.525-2.521a5.767 5.767 0 00-2.802-.728H7.325v-1.519a3.527 3.527 0 00-3.524-3.523H1.605a1.308 1.308 0 000 2.616h2.196c.5 0 .908.407.908.907v1.519h-1.52A3.194 3.194 0 000 27.824v5.2c0 .723.586 1.309 1.308 1.309zm68.384 9.973v-2.881h4.593v6.008l-4.593-3.127zm15.353-15.68a1.73 1.73 0 012.042 1.705c0 .515-.227 1-.622 1.33-.395.33-.913.468-1.42.376l-2.82-.51v-2.392l2.82-.51zm-8.144-4.756c0-.747.607-1.354 1.354-1.354.747 0 1.355.607 1.355 1.354v32.493c0 .747-.608 1.355-1.355 1.355a1.356 1.356 0 01-1.354-1.355V23.87zm-2.616 8.93v6.009h-4.593v-.323c0-.811-.08-1.614-.23-2.402l4.823-3.283zM52.534 11.172h6.654v8.42h-6.654v-8.42z" fill="#000"/><path d="M35.86 35.382c-.529-.31-1.254-.734-2.557-.734s-2.028.424-2.558.734c-.414.243-.642.377-1.236.377-.593 0-.821-.134-1.235-.377-.53-.31-1.255-.734-2.558-.734s-2.029.424-2.558.734c-.414.243-.642.377-1.235.377-.594 0-.822-.134-1.236-.377-.53-.31-1.254-.734-2.557-.734a1.308 1.308 0 100 2.615c.593 0 .821.134 1.235.377.53.31 1.254.735 2.558.735 1.303 0 2.028-.425 2.557-.735.414-.243.642-.377 1.236-.377.593 0 .821.134 1.235.377.53.31 1.255.735 2.558.735 1.304 0 2.029-.425 2.558-.735.414-.243.642-.377 1.236-.377s.821.134 1.236.377c.529.31 1.254.735 2.557.735a1.308 1.308 0 000-2.616c-.593 0-.821-.134-1.235-.377z" fill="#06D0A8"/><path d="M87.471 71.332H69.692v-1.826a1.308 1.308 0 10-2.615 0v1.826H46.671V53.784c0-5.542-4.329-10.203-9.855-10.612l-16.934-1.253a5.06 5.06 0 00-4.722 2.492l-4.305 7.424a3.133 3.133 0 01-2.702 1.556H3.19a.574.574 0 01-.574-.574V39.11a1.308 1.308 0 00-2.616 0v13.707c0 1.759 1.43 3.19 3.19 3.19h1.519v12.21a1.308 1.308 0 102.616 0v-2.141h1.93a1.308 1.308 0 000-2.616h-1.93v-7.453h.83a5.756 5.756 0 004.964-2.86l4.305-7.423a2.426 2.426 0 012.266-1.197l16.934 1.254c4.168.308 7.432 3.824 7.432 8.002v17.55H2.651A2.532 2.532 0 00.123 73.86v9.551a2.532 2.532 0 002.528 2.53h9.457a1.308 1.308 0 100-2.617h-9.37v-9.377h84.646v9.377H18.157a1.308 1.308 0 000 2.616h69.314A2.532 2.532 0 0090 83.412v-9.55a2.531 2.531 0 00-2.529-2.53z" fill="#252526"/></symbol></svg>