<?xml version="1.0" encoding="utf-8"?><svg xmlns="http://www.w3.org/2000/svg" xmlns:xlink="http://www.w3.org/1999/xlink"><symbol viewBox="0 0 14 10" id="check" xmlns="http://www.w3.org/2000/svg"><path d="M13 1L4.75 9 1 5.364" stroke-width="2" stroke-linecap="round" stroke-linejoin="round"/></symbol><symbol viewBox="0 0 18 18" id="close" xmlns="http://www.w3.org/2000/svg"><defs><path id="ba" d="M691.485 160.07l-1.414 1.415-7.071-7.071-7.071 7.071-1.414-1.414 7.07-7.071-7.07-7.071 1.414-1.415 7.07 7.071 7.072-7.07 1.414 1.414-7.07 7.07z"/></defs><use xlink:href="#ba" transform="translate(-674 -144)"/></symbol><symbol viewBox="0 0 36 37" id="cost" xmlns="http://www.w3.org/2000/svg"><path stroke-width="2" d="M1 1.5h34v34H1z"/><path d="M15.22 19.54h-1.96V17.7h1.96v-6.2c.587 0 1.22-.007 1.9-.02.68-.013 1.367-.02 2.06-.02 3.614 0 5.42 1.367 5.42 4.1 0 1.24-.447 2.213-1.34 2.92-.893.707-2.147 1.06-3.76 1.06h-1.84v1.66h3.28v1.84h-3.28v2.46h-2.44v-2.46h-1.96V21.2h1.96v-1.66zm4.22-5.78l-1.78.04v3.9h1.76c1.72 0 2.58-.64 2.58-1.92 0-.707-.213-1.22-.64-1.54-.413-.32-1.053-.48-1.92-.48z"/></symbol><symbol viewBox="0 0 52 42" id="email" xmlns="http://www.w3.org/2000/svg"><path d="M6.8 2h38.4C47.84 2 50 4.16 50 6.8v28.8c0 2.64-2.16 4.8-4.8 4.8H6.8c-2.64 0-4.8-2.16-4.8-4.8V6.8C2 4.16 4.16 2 6.8 2z" stroke-width="2.5" stroke-linecap="round" stroke-linejoin="round"/><path d="M50 6.8L26 23.6 2 6.8" stroke-width="2.5" stroke-linecap="round" stroke-linejoin="round"/></symbol><symbol viewBox="0 0 24 24" id="metro" xmlns="http://www.w3.org/2000/svg"><path d="M17.708 18.099c-.202.152-.44.228-.714.228-.242 0-.471-.076-.688-.228-.218-.152-.327-.373-.327-.66V9.626h-.023l-2.984 6.057c-.09.195-.221.367-.385.505-.145.112-.337.168-.578.168-.24 0-.433-.056-.577-.168a1.442 1.442 0 01-.385-.505L8.063 9.627H8.04v7.811a.748.748 0 01-.339.66 1.23 1.23 0 01-.7.229c-.275 0-.508-.076-.702-.228-.193-.152-.29-.373-.29-.66V6.958c0-.304.096-.589.29-.853.192-.264.537-.396 1.036-.396.37 0 .655.084.856.252.2.169.38.421.542.757l3.277 6.754h.024l3.253-6.754c.16-.336.342-.588.543-.757.2-.168.485-.252.855-.252.498 0 .844.132 1.036.396.193.265.29.55.29.854v10.478c0 .288-.101.509-.302.66l-.001.002zm-5.732 4.156c5.658 0 10.279-4.64 10.279-10.327 0-5.62-4.603-10.183-10.279-10.183-5.674 0-10.23 4.536-10.23 10.183 0 5.59 4.715 10.327 10.23 10.327zm0 1.745C5.495 24 0 18.48 0 11.928 0 5.315 5.34 0 11.976 0 18.613 0 24 5.34 24 11.928 24 18.577 18.6 24 11.976 24z"/></symbol><symbol viewBox="0 0 13 24" id="p-left" xmlns="http://www.w3.org/2000/svg"><path fill-rule="evenodd" d="M1.453 12l11.535 11.284-.721.705L.732 12.705.011 12l.721-.705L12.267.01l.721.705L1.453 12z"/></symbol><symbol viewBox="0 0 14 25" id="p-right" xmlns="http://www.w3.org/2000/svg"><path fill-rule="evenodd" d="M12.107 12.5L.793 1.186 1.5.479l11.314 11.314.707.707-.707.707L1.5 24.521l-.707-.707L12.107 12.5z"/></symbol><symbol viewBox="0 0 22 34" id="phone" xmlns="http://www.w3.org/2000/svg"><path d="M8.9 25.4a1.05 1.05 0 100 2.1h4.2a1.05 1.05 0 000-2.1H8.9z"/><path d="M4.7.2A4.2 4.2 0 00.5 4.4v25.2a4.2 4.2 0 004.2 4.2h12.6a4.2 4.2 0 004.2-4.2V4.4A4.2 4.2 0 0017.3.2H4.7zM2.6 4.4a2.1 2.1 0 012.1-2.1h12.6a2.1 2.1 0 012.1 2.1v25.2a2.1 2.1 0 01-2.1 2.1H4.7a2.1 2.1 0 01-2.1-2.1V4.4z"/></symbol><symbol viewBox="0 0 36 37" id="time" xmlns="http://www.w3.org/2000/svg"><path stroke-width="2" d="M1 1.5h34v34H1z"/><path d="M18.175 11.5v7.964l6 6" stroke-width="2"/></symbol><symbol viewBox="0 0 30 30" id="viber" xmlns="http://www.w3.org/2000/svg"><path d="M14.249.005C11.84.034 6.665.429 3.77 3.085 1.617 5.22.865 8.374.777 12.275.704 16.162.615 23.46 7.65 25.448v3.028s-.044 1.21.757 1.46c.986.311 1.548-.62 2.485-1.622l1.749-1.977c4.814.4 8.501-.522 8.926-.659.977-.312 6.479-1.015 7.378-8.316.922-7.539-.45-12.29-2.925-14.438h-.015c-.747-.688-3.75-2.876-10.459-2.9 0 0-.498-.034-1.298-.02zm.082 2.12c.684-.005 1.099.024 1.099.024 5.678.015 8.389 1.724 9.028 2.3 2.085 1.786 3.16 6.069 2.373 12.363-.747 6.103-5.21 6.49-6.036 6.753-.351.112-3.599.913-7.69.65 0 0-3.047 3.677-4 4.623-.15.166-.327.215-.44.19-.16-.039-.21-.238-.2-.512l.03-5.024c-5.968-1.65-5.616-7.876-5.553-11.128.073-3.252.684-5.913 2.5-7.715 2.447-2.211 6.842-2.51 8.887-2.525h.002zm.45 3.25a.372.372 0 00-.376.372c0 .21.17.376.376.376a7.044 7.044 0 015.04 1.987c1.361 1.323 2.025 3.1 2.05 5.425 0 .205.166.376.376.376v-.015a.375.375 0 00.376-.372 8.077 8.077 0 00-2.266-5.952c-1.484-1.45-3.364-2.197-5.576-2.197zm-4.941.86a1.174 1.174 0 00-.767.151h-.02a5.884 5.884 0 00-1.43 1.177c-.343.395-.528.796-.577 1.181-.03.23-.01.46.059.679l.024.015a16.9 16.9 0 001.504 3.247 19.1 19.1 0 002.9 3.965l.034.049.054.04.034.038.039.034a19.382 19.382 0 003.975 2.915c1.65.898 2.651 1.323 3.252 1.499v.01c.176.053.337.077.498.077a2.298 2.298 0 001.377-.59 5.683 5.683 0 001.163-1.436v-.01c.287-.541.19-1.054-.225-1.4a17.31 17.31 0 00-2.686-1.93c-.64-.346-1.29-.136-1.553.216l-.561.707c-.288.352-.811.303-.811.303l-.015.01c-3.901-.997-4.942-4.947-4.942-4.947s-.049-.537.312-.81l.703-.567c.337-.274.571-.922.21-1.563a16.866 16.866 0 00-1.923-2.686 1.069 1.069 0 00-.63-.376l.002.002zm5.59 1.114c-.498 0-.498.752.005.752a4.711 4.711 0 013.31 1.435 4.371 4.371 0 011.123 3.213.378.378 0 00.376.371l.015.02a.378.378 0 00.376-.376c.034-1.49-.43-2.74-1.338-3.74-.913-1.002-2.187-1.563-3.814-1.675h-.053zm.616 2.021c-.513-.015-.533.752-.025.767 1.236.064 1.836.688 1.915 1.973a.373.373 0 00.371.366h.015a.38.38 0 00.361-.4c-.088-1.674-1.001-2.618-2.622-2.705h-.015z"/></symbol><symbol viewBox="0 0 30 30" id="whatsapp" xmlns="http://www.w3.org/2000/svg"><path fill-rule="evenodd" clip-rule="evenodd" d="M21.769 17.977c-.373-.186-2.199-1.083-2.539-1.208-.34-.124-.588-.185-.836.187-.248.37-.959 1.208-1.175 1.455-.218.249-.434.279-.805.094-.372-.188-1.569-.579-2.988-1.844-1.104-.985-1.85-2.201-2.066-2.574-.216-.37-.024-.572.163-.757.167-.166.37-.434.557-.65.186-.217.248-.373.371-.621.125-.248.063-.464-.031-.65-.092-.187-.835-2.015-1.145-2.759-.301-.724-.607-.625-.835-.638A16.07 16.07 0 009.727 8c-.247 0-.65.092-.99.465-.34.371-1.3 1.27-1.3 3.099 0 1.827 1.33 3.594 1.517 3.842.186.248 2.618 4 6.345 5.609.887.383 1.579.611 2.117.781.89.284 1.7.244 2.34.148.713-.107 2.198-.899 2.508-1.767.309-.867.309-1.61.216-1.766-.093-.155-.34-.247-.713-.434h.002zm-6.778 9.254h-.005c-2.213 0-4.386-.594-6.29-1.722l-.45-.268L3.57 26.47l1.248-4.56-.293-.468a12.326 12.326 0 01-1.889-6.575C2.638 8.054 8.18 2.511 14.996 2.511c3.3 0 6.403 1.288 8.735 3.623a12.282 12.282 0 013.615 8.741c-.002 6.813-5.545 12.356-12.355 12.356zM25.506 4.36A14.77 14.77 0 0014.99 0C6.798 0 .127 6.669.125 14.865a14.83 14.83 0 001.984 7.431L0 30l7.88-2.067a14.852 14.852 0 007.105 1.81h.006c8.193 0 14.863-6.67 14.865-14.867a14.776 14.776 0 00-4.35-10.516z"/></symbol></svg>